<svg width="100%" height="100%" viewBox="0 0 5000 1344" version="1.1" xmlns="http://www.w3.org/2000/svg" xmlns:xlink="http://www.w3.org/1999/xlink" xml:space="preserve" style="fill-rule:evenodd;clip-rule:evenodd;stroke-linejoin:round;stroke-miterlimit:2;"><g><g><path d="M2559.19,302.67l167.292,-0l-265.636,781.41l-180.655,-0l-265.102,-781.41l167.292,-0l146.982,464.997c8.196,27.437 16.658,59.417 25.388,95.94c8.73,36.522 14.164,61.91 16.302,76.163c3.919,-32.781 17.281,-90.149 40.086,-172.103l148.051,-464.997Z" style="fill:#fff;fill-rule:nonzero;"/><rect x="2787.09" y="302.67" width="165.689" height="781.41" style="fill:#fff;fill-rule:nonzero;"/><path d="M3444.63,1084.08l-165.689,-0l0,-643.514l-212.189,-0l0,-137.896l590.067,-0l-0,137.896l-212.189,-0l-0,643.514Z" style="fill:#fff;fill-rule:nonzero;"/><path d="M4197.87,1084.08l-56.655,-185.999l-284.878,-0l-56.655,185.999l-178.516,-0l275.791,-784.617l202.568,-0l276.861,784.617l-178.516,-0Zm-96.207,-324.964c-52.379,-168.54 -81.864,-263.855 -88.456,-285.947c-6.592,-22.092 -11.313,-39.552 -14.164,-52.379c-11.759,45.609 -45.431,158.384 -101.017,338.326l203.637,-0Z" style="fill:#fff;fill-rule:nonzero;"/><path d="M4658.47,624.427l163.017,-321.757l178.516,-0l-259.223,477.291l0,304.119l-164.62,-0l0,-298.775l-259.223,-482.635l179.586,-0l161.947,321.757Z" style="fill:#fff;fill-rule:nonzero;"/></g><g id="app_refrences.vitay.io"><path d="M680.382,1343.39c-0.045,0 -0.091,0 -0.136,0c-96.727,0 -176.321,-79.594 -176.321,-176.32c0,-24.035 4.915,-47.819 14.442,-69.886c44.792,-105.222 -9.092,-218.203 -119.467,-250.509c-18.418,-5.242 -36.427,-11.826 -53.884,-19.699c-74.37,-34.064 -108.192,-103.828 -90.19,-184.806c3.455,-15.698 6.485,-32.427 14.304,-46.065c54.551,-95.464 -39.216,-231.477 -131.528,-249.842c-111.95,-22.305 -166.986,-138.62 -121.769,-242.448c34.67,-79.341 128.679,-120.739 212.505,-93.403c86.433,28.184 137.832,116.678 117.224,202.626c-3.697,15.638 -8.971,30.972 -14.062,46.247c-24.245,72.734 -2.546,156.56 55.884,206.383c14.062,12.123 32.428,19.639 49.763,27.033c29.578,12.729 61.824,20.245 89.523,36.004c66.674,37.882 90.918,109.101 68.553,191.655c-2.91,10.728 -6.062,21.335 -10.123,31.7c-29.661,78.627 -1.733,168.063 67.401,215.839c21.457,15.274 35.943,10.122 52.611,-6.061c59.4,-57.218 75.462,-147.105 39.519,-226.022c-40.307,-88.554 -8.364,-188.2 74.31,-231.72c25.353,-13.493 53.638,-20.552 82.357,-20.552c69.065,0 131.961,40.818 160.091,103.894c41.277,94.554 -5.394,204.626 -103.586,236.023c-86.069,27.518 -133.043,86.19 -142.256,172.865c-3.091,28.851 6.789,62.127 19.76,89.039c50.429,104.374 -1.031,222.628 -113.224,252.267c-13.757,2.839 -27.688,4.763 -41.701,5.758Z" style="fill:#fff;fill-rule:nonzero;"/><path d="M1145.76,348.752c-0.083,-0 -0.166,0 -0.249,0c-94.265,0 -171.834,-77.569 -171.834,-171.835c-0,-1.596 0.022,-3.193 0.066,-4.788c1.94,-103.647 93.221,-176.806 184.321,-171.896c88.433,4.788 167.835,84.251 167.289,174.926c-0.963,95.555 -79.842,173.643 -175.402,173.643c-1.397,-0 -2.794,-0.017 -4.191,-0.05Z" style="fill:#fff;fill-rule:nonzero;"/></g></g></svg>